<svg width="22" height="22" viewBox="0 0 22 22" fill="none" xmlns="http://www.w3.org/2000/svg">
<path d="M11.0007 12.8333C13.0228 12.8333 14.6673 11.1888 14.6673 9.16667C14.6673 7.1445 13.0228 5.5 11.0007 5.5C8.97848 5.5 7.33398 7.1445 7.33398 9.16667C7.33398 11.1888 8.97848 12.8333 11.0007 12.8333ZM11.0007 7.33333C12.0117 7.33333 12.834 8.15558 12.834 9.16667C12.834 10.1777 12.0117 11 11.0007 11C9.98957 11 9.16732 10.1777 9.16732 9.16667C9.16732 8.15558 9.98957 7.33333 11.0007 7.33333Z" fill="#777777"/>
<path d="M10.4678 19.9963C10.6229 20.1071 10.8088 20.1667 10.9994 20.1667C11.1901 20.1667 11.376 20.1071 11.5311 19.9963C11.8098 19.7992 18.3593 15.0702 18.3328 9.16683C18.3328 5.12341 15.0428 1.8335 10.9994 1.8335C6.95601 1.8335 3.6661 5.12341 3.6661 9.16225C3.63951 15.0702 10.1891 19.7992 10.4678 19.9963ZM10.9994 3.66683C14.0327 3.66683 16.4994 6.13358 16.4994 9.17141C16.5187 13.2396 12.4771 16.8925 10.9994 18.0906C9.52268 16.8916 5.48018 13.2377 5.49943 9.16683C5.49943 6.13358 7.96618 3.66683 10.9994 3.66683Z" fill="#777777"/>
</svg>
