<svg width="64" height="64" viewBox="0 0 64 64" fill="none" xmlns="http://www.w3.org/2000/svg">
<rect x="8.5" y="1.5" width="45" height="55" rx="8.5" stroke="#7B61FF" stroke-width="3"/>
<path d="M15 18H31" stroke="#7B61FF" stroke-width="2"/>
<path d="M15 27H38" stroke="#7B61FF" stroke-width="2"/>
<path d="M18.4573 47.096C17.8866 47.096 17.3693 46.9733 16.9053 46.728C16.4466 46.4773 16.0839 46.1333 15.8173 45.696C15.5559 45.2533 15.4253 44.7547 15.4253 44.2C15.4253 43.6453 15.5559 43.1493 15.8173 42.712C16.0839 42.2693 16.4466 41.9253 16.9053 41.68C17.3693 41.4293 17.8893 41.304 18.4653 41.304C18.9506 41.304 19.3879 41.3893 19.7773 41.56C20.1719 41.7307 20.5026 41.976 20.7693 42.296L19.9373 43.064C19.5586 42.6267 19.0893 42.408 18.5293 42.408C18.1826 42.408 17.8733 42.4853 17.6013 42.64C17.3293 42.7893 17.1159 43 16.9613 43.272C16.8119 43.544 16.7373 43.8533 16.7373 44.2C16.7373 44.5467 16.8119 44.856 16.9613 45.128C17.1159 45.4 17.3293 45.6133 17.6013 45.768C17.8733 45.9173 18.1826 45.992 18.5293 45.992C19.0893 45.992 19.5586 45.7707 19.9373 45.328L20.7693 46.096C20.5026 46.4213 20.1719 46.6693 19.7773 46.84C19.3826 47.0107 18.9426 47.096 18.4573 47.096ZM23.456 47.064C23.0027 47.064 22.5947 46.9707 22.232 46.784C21.8747 46.592 21.5947 46.328 21.392 45.992C21.1894 45.656 21.088 45.2747 21.088 44.848C21.088 44.4213 21.1894 44.04 21.392 43.704C21.5947 43.368 21.8747 43.1067 22.232 42.92C22.5947 42.728 23.0027 42.632 23.456 42.632C23.9094 42.632 24.3147 42.728 24.672 42.92C25.0294 43.1067 25.3094 43.368 25.512 43.704C25.7147 44.04 25.816 44.4213 25.816 44.848C25.816 45.2747 25.7147 45.656 25.512 45.992C25.3094 46.328 25.0294 46.592 24.672 46.784C24.3147 46.9707 23.9094 47.064 23.456 47.064ZM23.456 46.04C23.776 46.04 24.0374 45.9333 24.24 45.72C24.448 45.5013 24.552 45.2107 24.552 44.848C24.552 44.4853 24.448 44.1973 24.24 43.984C24.0374 43.7653 23.776 43.656 23.456 43.656C23.136 43.656 22.872 43.7653 22.664 43.984C22.456 44.1973 22.352 44.4853 22.352 44.848C22.352 45.2107 22.456 45.5013 22.664 45.72C22.872 45.9333 23.136 46.04 23.456 46.04ZM29.2662 42.632C29.7996 42.632 30.2289 42.792 30.5542 43.112C30.8849 43.432 31.0502 43.9067 31.0502 44.536V47H29.8022V44.728C29.8022 44.3867 29.7276 44.1333 29.5782 43.968C29.4289 43.7973 29.2129 43.712 28.9302 43.712C28.6156 43.712 28.3649 43.8107 28.1782 44.008C27.9916 44.2 27.8982 44.488 27.8982 44.872V47H26.6502V42.696H27.8422V43.2C28.0076 43.0187 28.2129 42.88 28.4582 42.784C28.7036 42.6827 28.9729 42.632 29.2662 42.632ZM34.9575 46.792C34.8348 46.8827 34.6828 46.952 34.5015 47C34.3255 47.0427 34.1388 47.064 33.9415 47.064C33.4295 47.064 33.0321 46.9333 32.7495 46.672C32.4721 46.4107 32.3335 46.0267 32.3335 45.52V43.752H31.6695V42.792H32.3335V41.744H33.5815V42.792H34.6535V43.752H33.5815V45.504C33.5815 45.6853 33.6268 45.8267 33.7175 45.928C33.8135 46.024 33.9468 46.072 34.1175 46.072C34.3148 46.072 34.4828 46.0187 34.6215 45.912L34.9575 46.792ZM36.85 43.264C36.9994 43.056 37.1994 42.8987 37.45 42.792C37.706 42.6853 37.9994 42.632 38.33 42.632V43.784C38.1914 43.7733 38.098 43.768 38.05 43.768C37.6927 43.768 37.4127 43.8693 37.21 44.072C37.0074 44.2693 36.906 44.568 36.906 44.968V47H35.658V42.696H36.85V43.264ZM40.7847 42.632C41.4513 42.632 41.9633 42.792 42.3207 43.112C42.678 43.4267 42.8567 43.904 42.8567 44.544V47H41.6887V46.464C41.454 46.864 41.0167 47.064 40.3767 47.064C40.046 47.064 39.758 47.008 39.5127 46.896C39.2727 46.784 39.0887 46.6293 38.9607 46.432C38.8327 46.2347 38.7687 46.0107 38.7687 45.76C38.7687 45.36 38.918 45.0453 39.2167 44.816C39.5207 44.5867 39.9873 44.472 40.6167 44.472H41.6087C41.6087 44.2 41.526 43.992 41.3607 43.848C41.1953 43.6987 40.9473 43.624 40.6167 43.624C40.3873 43.624 40.1607 43.6613 39.9367 43.736C39.718 43.8053 39.5313 43.9013 39.3767 44.024L38.9287 43.152C39.1633 42.9867 39.4433 42.8587 39.7687 42.768C40.0993 42.6773 40.438 42.632 40.7847 42.632ZM40.6887 46.224C40.902 46.224 41.0913 46.176 41.2567 46.08C41.422 45.9787 41.5393 45.832 41.6087 45.64V45.2H40.7527C40.2407 45.2 39.9847 45.368 39.9847 45.704C39.9847 45.864 40.046 45.992 40.1687 46.088C40.2967 46.1787 40.47 46.224 40.6887 46.224ZM46.7622 46.792C46.6395 46.8827 46.4875 46.952 46.3062 47C46.1302 47.0427 45.9435 47.064 45.7462 47.064C45.2342 47.064 44.8368 46.9333 44.5542 46.672C44.2768 46.4107 44.1382 46.0267 44.1382 45.52V43.752H43.4742V42.792H44.1382V41.744H45.3862V42.792H46.4582V43.752H45.3862V45.504C45.3862 45.6853 45.4315 45.8267 45.5222 45.928C45.6182 46.024 45.7515 46.072 45.9222 46.072C46.1195 46.072 46.2875 46.0187 46.4262 45.912L46.7622 46.792Z" fill="#7B61FF"/>
</svg>
