<svg width="64" height="64" viewBox="0 0 64 64" fill="none" xmlns="http://www.w3.org/2000/svg">
<rect x="8.5" y="1.5" width="45" height="55" rx="8.5" stroke="#7B61FF" stroke-width="3"/>
<path d="M15 18H31" stroke="#7B61FF" stroke-width="2"/>
<path d="M15 27H38" stroke="#7B61FF" stroke-width="2"/>
<path d="M18.6773 47L17.5973 45.44H17.5333H16.4053V47H15.1093V41.4H17.5333C18.0293 41.4 18.4586 41.4827 18.8213 41.648C19.1893 41.8133 19.472 42.048 19.6693 42.352C19.8666 42.656 19.9653 43.016 19.9653 43.432C19.9653 43.848 19.864 44.208 19.6613 44.512C19.464 44.8107 19.1813 45.04 18.8133 45.2L20.0693 47H18.6773ZM18.6533 43.432C18.6533 43.1173 18.552 42.8773 18.3493 42.712C18.1466 42.5413 17.8506 42.456 17.4613 42.456H16.4053V44.408H17.4613C17.8506 44.408 18.1466 44.3227 18.3493 44.152C18.552 43.9813 18.6533 43.7413 18.6533 43.432ZM22.6011 42.632C23.2677 42.632 23.7797 42.792 24.1371 43.112C24.4944 43.4267 24.6731 43.904 24.6731 44.544V47H23.5051V46.464C23.2704 46.864 22.8331 47.064 22.1931 47.064C21.8624 47.064 21.5744 47.008 21.3291 46.896C21.0891 46.784 20.9051 46.6293 20.7771 46.432C20.6491 46.2347 20.5851 46.0107 20.5851 45.76C20.5851 45.36 20.7344 45.0453 21.0331 44.816C21.3371 44.5867 21.8037 44.472 22.4331 44.472H23.4251C23.4251 44.2 23.3424 43.992 23.1771 43.848C23.0117 43.6987 22.7637 43.624 22.4331 43.624C22.2037 43.624 21.9771 43.6613 21.7531 43.736C21.5344 43.8053 21.3477 43.9013 21.1931 44.024L20.7451 43.152C20.9797 42.9867 21.2597 42.8587 21.5851 42.768C21.9157 42.6773 22.2544 42.632 22.6011 42.632ZM22.5051 46.224C22.7184 46.224 22.9077 46.176 23.0731 46.08C23.2384 45.9787 23.3557 45.832 23.4251 45.64V45.2H22.5691C22.0571 45.2 21.8011 45.368 21.8011 45.704C21.8011 45.864 21.8624 45.992 21.9851 46.088C22.1131 46.1787 22.2864 46.224 22.5051 46.224ZM28.3466 42.632C28.7466 42.632 29.1092 42.7253 29.4346 42.912C29.7652 43.0933 30.0239 43.352 30.2106 43.688C30.3972 44.0187 30.4906 44.4053 30.4906 44.848C30.4906 45.2907 30.3972 45.68 30.2106 46.016C30.0239 46.3467 29.7652 46.6053 29.4346 46.792C29.1092 46.9733 28.7466 47.064 28.3466 47.064C27.7972 47.064 27.3652 46.8907 27.0506 46.544V48.552H25.8026V42.696H26.9946V43.192C27.3039 42.8187 27.7546 42.632 28.3466 42.632ZM28.1306 46.04C28.4506 46.04 28.7119 45.9333 28.9146 45.72C29.1226 45.5013 29.2266 45.2107 29.2266 44.848C29.2266 44.4853 29.1226 44.1973 28.9146 43.984C28.7119 43.7653 28.4506 43.656 28.1306 43.656C27.8106 43.656 27.5466 43.7653 27.3386 43.984C27.1359 44.1973 27.0346 44.4853 27.0346 44.848C27.0346 45.2107 27.1359 45.5013 27.3386 45.72C27.5466 45.9333 27.8106 46.04 28.1306 46.04ZM33.87 42.632C34.27 42.632 34.6327 42.7253 34.958 42.912C35.2887 43.0933 35.5473 43.352 35.734 43.688C35.9207 44.0187 36.014 44.4053 36.014 44.848C36.014 45.2907 35.9207 45.68 35.734 46.016C35.5473 46.3467 35.2887 46.6053 34.958 46.792C34.6327 46.9733 34.27 47.064 33.87 47.064C33.3207 47.064 32.8887 46.8907 32.574 46.544V48.552H31.326V42.696H32.518V43.192C32.8273 42.8187 33.278 42.632 33.87 42.632ZM33.654 46.04C33.974 46.04 34.2353 45.9333 34.438 45.72C34.646 45.5013 34.75 45.2107 34.75 44.848C34.75 44.4853 34.646 44.1973 34.438 43.984C34.2353 43.7653 33.974 43.656 33.654 43.656C33.334 43.656 33.07 43.7653 32.862 43.984C32.6593 44.1973 32.558 44.4853 32.558 44.848C32.558 45.2107 32.6593 45.5013 32.862 45.72C33.07 45.9333 33.334 46.04 33.654 46.04ZM38.8974 47.064C38.4441 47.064 38.0361 46.9707 37.6734 46.784C37.3161 46.592 37.0361 46.328 36.8334 45.992C36.6308 45.656 36.5294 45.2747 36.5294 44.848C36.5294 44.4213 36.6308 44.04 36.8334 43.704C37.0361 43.368 37.3161 43.1067 37.6734 42.92C38.0361 42.728 38.4441 42.632 38.8974 42.632C39.3508 42.632 39.7561 42.728 40.1134 42.92C40.4708 43.1067 40.7508 43.368 40.9534 43.704C41.1561 44.04 41.2574 44.4213 41.2574 44.848C41.2574 45.2747 41.1561 45.656 40.9534 45.992C40.7508 46.328 40.4708 46.592 40.1134 46.784C39.7561 46.9707 39.3508 47.064 38.8974 47.064ZM38.8974 46.04C39.2174 46.04 39.4788 45.9333 39.6814 45.72C39.8894 45.5013 39.9934 45.2107 39.9934 44.848C39.9934 44.4853 39.8894 44.1973 39.6814 43.984C39.4788 43.7653 39.2174 43.656 38.8974 43.656C38.5774 43.656 38.3134 43.7653 38.1054 43.984C37.8974 44.1973 37.7934 44.4853 37.7934 44.848C37.7934 45.2107 37.8974 45.5013 38.1054 45.72C38.3134 45.9333 38.5774 46.04 38.8974 46.04ZM43.2836 43.264C43.433 43.056 43.633 42.8987 43.8836 42.792C44.1396 42.6853 44.433 42.632 44.7636 42.632V43.784C44.625 43.7733 44.5316 43.768 44.4836 43.768C44.1263 43.768 43.8463 43.8693 43.6436 44.072C43.441 44.2693 43.3396 44.568 43.3396 44.968V47H42.0916V42.696H43.2836V43.264ZM48.4301 46.792C48.3075 46.8827 48.1555 46.952 47.9741 47C47.7981 47.0427 47.6115 47.064 47.4141 47.064C46.9021 47.064 46.5048 46.9333 46.2221 46.672C45.9448 46.4107 45.8061 46.0267 45.8061 45.52V43.752H45.1421V42.792H45.8061V41.744H47.0541V42.792H48.1261V43.752H47.0541V45.504C47.0541 45.6853 47.0995 45.8267 47.1901 45.928C47.2861 46.024 47.4195 46.072 47.5901 46.072C47.7875 46.072 47.9555 46.0187 48.0941 45.912L48.4301 46.792Z" fill="#7B61FF"/>
</svg>
