<svg width="50" height="50" viewBox="0 0 50 50" fill="none" xmlns="http://www.w3.org/2000/svg">
<circle cx="25" cy="25" r="24.5" stroke="#7B61FF"/>
<path d="M20.592 31V29.912L25.152 25.512C25.5573 25.128 25.856 24.792 26.048 24.504C26.2507 24.2053 26.384 23.9333 26.448 23.688C26.5227 23.432 26.56 23.1867 26.56 22.952C26.56 22.376 26.3573 21.9227 25.952 21.592C25.5467 21.2613 24.9547 21.096 24.176 21.096C23.5787 21.096 23.04 21.1973 22.56 21.4C22.08 21.592 21.664 21.896 21.312 22.312L20.224 21.368C20.6507 20.824 21.2213 20.408 21.936 20.12C22.6613 19.8213 23.456 19.672 24.32 19.672C25.0987 19.672 25.776 19.8 26.352 20.056C26.928 20.3013 27.3707 20.6587 27.68 21.128C28 21.5973 28.16 22.152 28.16 22.792C28.16 23.1547 28.112 23.512 28.016 23.864C27.92 24.216 27.7387 24.5893 27.472 24.984C27.2053 25.3787 26.8213 25.8213 26.32 26.312L22.256 30.232L21.872 29.608H28.64V31H20.592Z" fill="#7B61FF"/>
</svg>
